<?xml version="1.0" standalone="no"?>
<!DOCTYPE svg PUBLIC "-//W3C//DTD SVG 20010904//EN"
 "http://www.w3.org/TR/2001/REC-SVG-20010904/DTD/svg10.dtd">
<svg version="1.0" xmlns="http://www.w3.org/2000/svg"
 width="225.000000pt" height="225.000000pt" viewBox="0 0 225.000000 225.000000"
 preserveAspectRatio="xMidYMid meet">
<metadata>
Created by potrace 1.14, written by Peter Selinger 2001-2017
</metadata>
<g transform="translate(0.000000,225.000000) scale(0.100000,-0.100000)"
fill="#000000" stroke="none">
<path d="M180 1452 c0 -31 -5 -41 -24 -50 -52 -23 -54 -103 -4 -143 19 -15 19
-17 -20 -105 -28 -64 -45 -89 -58 -90 -11 -1 -27 -2 -37 -3 -10 -1 -16 -5 -12
-10 3 -5 17 -8 30 -5 14 2 25 2 25 -1 0 -4 -14 -38 -30 -77 -31 -73 -36 -98
-20 -98 5 0 3 -19 -6 -42 -19 -55 -12 -58 11 -5 85 195 103 226 127 222 12 -3
24 -9 26 -15 6 -16 22 -12 22 5 0 10 7 14 23 11 12 -3 25 -5 30 -5 4 -1 7 -5
7 -11 0 -5 13 -38 29 -72 15 -35 39 -87 51 -116 24 -57 37 -66 19 -13 -8 23
-8 35 0 45 9 11 8 23 -4 50 -8 20 -22 52 -30 71 -8 19 -16 38 -18 42 -1 5 10
8 25 8 15 1 30 4 34 8 7 6 -13 10 -57 10 -12 0 -30 30 -57 93 -36 83 -38 94
-23 99 23 7 44 46 44 80 0 27 -37 75 -58 75 -7 0 -11 16 -10 40 1 33 -2 40
-17 40 -14 0 -18 -8 -18 -38z m58 -84 c37 -37 -12 -113 -57 -88 -35 18 -45 48
-26 76 17 26 62 33 83 12z m-21 -225 c9 -21 17 -41 17 -45 1 -3 4 -10 9 -14
13 -13 7 -24 -13 -24 -11 0 -20 7 -20 15 0 8 -7 15 -16 15 -8 0 -12 -5 -9 -10
7 -11 -22 -26 -32 -17 -5 6 37 117 44 117 2 0 11 -17 20 -37z"/>
<path d="M570 1323 c-42 -15 -67 -71 -40 -88 6 -4 4 -15 -6 -30 -22 -34 -11
-73 24 -86 31 -12 101 -14 132 -4 29 9 24 51 -5 47 -40 -5 -96 -5 -102 2 -12
11 14 28 49 31 18 2 36 3 41 4 4 1 7 10 7 21 0 15 -7 20 -30 21 -51 2 -55 4
-55 19 0 11 12 15 52 15 45 -1 52 2 56 21 3 16 -2 24 -17 28 -26 7 -86 6 -106
-1z"/>
<path d="M734 1272 c-8 -6 -9 -35 -5 -137 1 -24 4 -25 62 -25 33 0 69 5 80 10
21 12 25 50 7 68 -8 8 -8 15 1 26 14 17 -1 55 -22 57 -54 6 -115 6 -123 1z
m94 -49 c2 -8 -6 -13 -22 -13 -17 0 -26 5 -26 16 0 19 41 16 48 -3z m3 -58 c0
-5 -12 -11 -26 -13 -18 -2 -25 1 -25 13 0 12 7 15 25 13 14 -2 26 -7 26 -13z"/>
<path d="M920 1194 l0 -84 30 0 c27 0 30 3 30 30 0 38 10 38 35 0 17 -25 27
-30 65 -31 86 -2 100 7 107 75 5 36 9 46 24 46 20 0 22 -8 20 -77 -1 -41 0
-43 29 -43 l30 0 0 84 0 83 -75 1 -75 1 0 -49 c0 -30 -6 -54 -15 -64 -8 -8
-15 -22 -15 -30 0 -25 -13 -18 -37 19 -28 43 -28 43 1 86 l25 36 -29 1 c-22 0
-35 -8 -57 -36 l-28 -37 -5 35 c-4 30 -9 35 -32 36 l-28 1 0 -83z"/>
<path d="M1328 1268 c-3 -7 -4 -37 -2 -66 3 -77 20 -91 104 -90 l68 0 4 32 c1
17 1 54 -2 81 -5 45 -7 50 -30 50 -23 0 -25 -4 -26 -48 0 -55 -16 -77 -42 -61
-12 8 -17 24 -16 55 1 24 -4 47 -10 51 -17 12 -43 9 -48 -4z"/>
<path d="M1555 1255 c-57 -56 -13 -143 67 -132 28 4 35 2 32 -8 -8 -20 -29
-25 -65 -15 -31 9 -48 1 -49 -22 0 -15 40 -28 82 -28 76 1 96 31 94 145 l-1
79 -68 3 c-61 3 -71 0 -92 -22z m100 -46 c8 -23 -7 -39 -38 -39 -20 0 -32 23
-23 45 9 23 53 19 61 -6z"/>
<path d="M510 981 c0 -39 4 -51 15 -51 11 0 15 11 15 41 0 33 3 40 18 37 12
-2 17 -13 17 -38 0 -23 5 -36 15 -38 13 -2 16 7 15 45 l0 48 -48 3 -47 3 0
-50z"/>
<path d="M630 991 c-16 -31 -13 -91 5 -91 8 0 15 7 15 15 0 8 8 15 18 15 41 0
57 51 23 70 -29 15 -49 12 -61 -9z m45 -31 c-5 -8 -11 -8 -17 -2 -6 6 -7 16
-3 22 5 8 11 8 17 2 6 -6 7 -16 3 -22z"/>
<path d="M732 1001 c-8 -5 -12 -21 -10 -37 2 -24 8 -29 35 -32 28 -3 33 1 39
23 10 42 -27 70 -64 46z m34 -49 c-4 -3 -12 0 -19 7 -9 9 -9 14 3 21 11 7 16
5 18 -6 2 -9 1 -18 -2 -22z"/>
<path d="M822 998 c-29 -29 -2 -72 40 -66 29 4 25 24 -5 21 -18 -2 -16 0 6 8
30 12 36 33 11 43 -24 9 -39 7 -52 -6z m38 -12 c0 -3 -4 -8 -10 -11 -5 -3 -10
-1 -10 4 0 6 5 11 10 11 6 0 10 -2 10 -4z"/>
<path d="M909 1003 c-10 -68 1 -89 27 -55 13 16 13 16 14 0 0 -11 8 -18 20
-18 17 0 18 3 8 25 -8 19 -8 28 2 40 10 12 10 15 -4 15 -9 0 -19 -7 -22 -15
-4 -8 -10 -15 -15 -15 -5 0 -9 7 -9 15 0 15 -19 22 -21 8z"/>
<path d="M1000 969 c0 -28 4 -39 15 -39 9 0 15 9 15 25 0 14 5 25 10 25 10 0
14 -14 11 -37 -1 -7 5 -13 14 -13 9 0 15 9 15 24 0 22 19 49 21 29 2 -23 8
-46 14 -51 12 -12 23 20 16 47 -7 24 -11 26 -69 27 l-62 1 0 -38z"/>
<path d="M1150 970 c0 -29 4 -40 15 -40 8 0 15 7 15 15 0 8 5 15 10 15 6 0 10
-7 10 -15 0 -8 7 -15 15 -15 11 0 15 11 15 40 0 42 -12 52 -30 23 -10 -17 -10
-17 -20 0 -18 29 -30 19 -30 -23z"/>
<path d="M1252 973 c3 -34 6 -38 32 -41 16 -2 32 2 37 10 7 10 9 10 9 1 0 -7
7 -13 15 -13 11 0 15 11 15 41 0 45 -19 50 -31 8 -4 -13 -7 -19 -8 -12 -1 9
-54 43 -68 43 -2 0 -3 -17 -1 -37z m43 -13 c3 -5 1 -10 -4 -10 -6 0 -11 5 -11
10 0 6 2 10 4 10 3 0 8 -4 11 -10z"/>
<path d="M1382 998 c-27 -27 -6 -68 34 -68 30 0 42 20 12 21 l-23 0 23 11 c26
13 29 33 6 42 -24 9 -39 7 -52 -6z m38 -18 c0 -5 -2 -10 -4 -10 -3 0 -8 5 -11
10 -3 6 -1 10 4 10 6 0 11 -4 11 -10z"/>
<path d="M1516 995 c-19 -19 -19 -21 -6 -46 12 -22 75 -28 67 -6 -2 6 -11 11
-20 9 -8 -1 -19 3 -23 9 -8 14 14 29 34 21 10 -3 13 0 10 9 -7 20 -43 23 -62
4z"/>
<path d="M1594 995 c-4 -8 -3 -27 0 -41 6 -22 11 -25 44 -22 35 3 37 5 37 37
0 42 -22 54 -27 14 -4 -34 -22 -33 -26 2 -4 28 -19 33 -28 10z"/>
<path d="M1702 998 c-22 -22 -14 -57 13 -64 29 -7 59 2 51 15 -3 5 -15 7 -26
4 -15 -4 -20 0 -20 16 0 14 5 19 15 15 21 -8 41 6 24 17 -20 12 -43 11 -57 -3z"/>
<path d="M1780 969 c0 -28 4 -39 15 -39 9 0 15 9 15 25 0 14 5 25 10 25 6 0
10 -11 10 -25 0 -16 6 -25 15 -25 9 0 15 9 15 24 0 27 19 47 21 22 1 -9 2 -21
3 -28 0 -6 7 -13 14 -16 10 -3 13 6 10 34 l-3 39 -62 1 -63 1 0 -38z"/>
<path d="M1936 994 c-31 -30 -12 -64 36 -64 36 0 37 20 1 21 -27 1 -27 1 5 10
17 5 32 11 32 14 0 9 -33 35 -45 35 -7 0 -21 -7 -29 -16z m44 -8 c0 -2 -7 -7
-16 -10 -8 -3 -12 -2 -9 4 6 10 25 14 25 6z"/>
<path d="M2020 970 c0 -29 4 -40 15 -40 10 0 12 6 8 18 -6 15 -5 15 10 3 14
-11 20 -11 34 0 15 12 16 12 10 -3 -4 -12 -2 -18 8 -18 11 0 15 11 15 40 0 45
-20 55 -37 18 l-10 -23 -12 23 c-20 37 -41 28 -41 -18z"/>
<path d="M2139 1000 c-1 -5 -2 -16 -3 -22 -6 -40 44 -64 72 -36 9 9 12 9 12 0
0 -7 6 -12 13 -12 9 0 13 14 14 40 0 28 -4 40 -13 40 -9 0 -14 -11 -14 -27 -1
-24 -2 -25 -11 -10 -5 9 -19 17 -29 17 -11 0 -20 5 -20 10 0 6 -4 10 -10 10
-5 0 -11 -4 -11 -10z m46 -40 c3 -5 -1 -10 -10 -10 -9 0 -13 5 -10 10 3 6 8
10 10 10 2 0 7 -4 10 -10z"/>
</g>
</svg>
